Simulation
nRows=31
nColumns=15
endheader
time  TH_x TH_y TH_z SC_y  SC_z  SC_x  AC_y  AC_z  AC_x  GH_y  GH_z  GH_yy  EL_x  PS_y
0.0  0.000000  0.000000  0.000000  -39.02178629534501  2.003572823503963  0.7755992151159471  47.3172057017949  3.178642996137117  0.7831529998086014  53.304045900460345  8.534103053116096  -30.248837677263406  23.247424437158916  120.000000
0.03099999999999998  0.000000  0.000000  0.000000  -38.77663443598569  2.237133859722504  0.4957373134735207  47.09538760175356  3.5949564370237868  1.1130652151771137  50.58144086847019  9.122148131793958  -27.443219743950113  23.274548902646625  120.000000
0.06199999999999996  0.000000  0.000000  0.000000  -38.5002336454089  2.416272157909643  0.13492975941755875  46.887715164993324  3.9308641986773134  1.4353762631342977  48.585512147770125  9.71401835271242  -25.364402089463816  23.29285490077347  120.000000
0.09299999999999994  0.000000  0.000000  0.000000  -38.2586195980805  2.5668958857158604  -0.281818005958421  46.70062565592497  4.203299453282225  1.7644632039877222  47.26044702543828  10.315655801918128  -23.967893274926933  23.297027869573235  120.000000
0.12399999999999992  0.000000  0.000000  0.000000  -38.09052159753542  2.6872153905983316  -0.7310221838555301  46.54106765344609  4.447586017210361  2.101868409371526  46.457412610146484  10.949595493481379  -23.128802892097852  23.28392525818975  120.000000
0.1549999999999999  0.000000  0.000000  0.000000  -38.016768105450524  2.783998542135846  -1.1824462301874419  46.422439981143626  4.693422746980123  2.4453318218452442  46.04551288879592  11.642093694065284  -22.74210100169647  23.25450990104573  120.000000
0.1859999999999999  0.000000  0.000000  0.000000  -38.04110072532619  2.8714895751818097  -1.6127923182652906  46.35505539775147  4.96218451629677  2.794665411677583  45.89201949826942  12.419793313357317  -22.697942071831395  23.221017412577165  120.000000
0.21699999999999986  0.000000  0.000000  0.000000  -38.158541783242626  2.961921463341318  -1.9986447848940259  46.34045418334564  5.264598557287234  3.149476159236789  45.86993785736459  13.300951068186947  -22.889953771076836  23.19795532791733  120.000000
0.24799999999999983  0.000000  0.000000  0.000000  -38.356012860985246  3.0631540084751685  -2.3227880625519095  46.377033644023875  5.604778981553166  3.5085370693530398  45.87158222670023  14.299620958824635  -23.228546296156924  23.200068351695574  120.000000
0.2789999999999998  0.000000  0.000000  0.000000  -38.61822272694144  3.1816207264891827  -2.57128191240691  46.460602195601176  5.979840822402352  3.868721638218588  45.82002855301584  15.42338090612667  -23.649062494537628  23.241644047804193  120.000000
0.3099999999999998  0.000000  0.000000  0.000000  -38.9265289733826  3.3226219613434234  -2.734470892593924  46.58541228972015  6.382654802892457  4.226440866118236  45.669465559229344  16.673433823292257  -24.111818279636584  23.332447253844283  120.000000
0.34099999999999975  0.000000  0.000000  0.000000  -39.26356720384838  3.4899976528696857  -2.8068028839056134  46.74362425997609  6.802838697174467  4.577130297913057  45.39902939936161  18.046388149114286  -24.5942661040137  23.47481427244191  120.000000
0.3719999999999998  0.000000  0.000000  0.000000  -39.61054455436455  3.6862424353396186  -2.785222176862817  46.926181478970314  7.228631310003388  4.916328782729087  45.007499872669975  19.53287815133129  -25.085482137737838  23.661471870301966  120.000000
0.40299999999999975  0.000000  0.000000  0.000000  -39.95054179154301  3.913810236982981  -2.670729323639253  47.12255124686932  7.647410596317802  5.240239155144404  44.50659919733699  21.120089848255553  -25.579488503167465  23.875787553297446  120.000000
0.4339999999999997  0.000000  0.000000  0.000000  -40.26722844987665  4.174129982153912  -2.4649412493484064  47.32250940656787  8.047659213828096  5.545455548129338  43.9155316832458  22.79008827824282  -26.071334171471143  24.095285617046827  120.000000
0.4649999999999997  0.000000  0.000000  0.000000  -40.54980941417273  4.467362600920994  -2.171724961872942  47.51683036365145  8.420674787356743  5.828650141017466  43.25614936177261  24.52331569132479  -26.554169758868078  24.296439354094442  120.000000
0.49599999999999966  0.000000  0.000000  0.000000  -40.79125775836884  4.792286099664713  -1.7934113167103556  47.698026150394654  8.761136950002083  6.08667041473322  42.55050551162787  26.296786446594588  -27.019060589525935  24.45985133781023  120.000000
0.5269999999999997  0.000000  0.000000  0.000000  -40.9930950798244  5.146271632977037  -1.3316292667553253  47.86042967248797  9.068036847109815  6.316384922094485  41.819780846921304  28.086655712360713  -27.456222356604528  24.574363645827987  120.000000
0.5579999999999996  0.000000  0.000000  0.000000  -41.16265036745639  5.524478198446394  -0.7858400154638978  48.001304566300064  9.344497202621186  6.513906159093046  41.0846942296114  29.869614671224053  -27.858311025530394  24.638106876224732  120.000000
0.5889999999999996  0.000000  0.000000  0.000000  -41.31578816872375  5.921549827882461  -0.15347060896945522  48.120257291742206  9.596650541131021  6.675489059807022  40.36674461109092  31.62349837368432  -28.22320890787368  24.6566531320462  120.000000
0.6199999999999996  0.000000  0.000000  0.000000  -41.471580328884464  6.331979776453944  0.5684746680035463  48.21921547556856  9.831940685055846  6.797416533596037  39.68896356969303  33.330378096673286  -28.558020526737838  24.638953992443795  120.000000
0.6509999999999996  0.000000  0.000000  0.000000  -41.655358073016785  6.750360139977696  1.384258023413434  48.30105996527394  10.057448282774686  6.878001733944216  39.07640168407031  34.97570097949383  -28.88072962725643  24.59297416239026  120.000000
0.6819999999999995  0.000000  0.000000  0.000000  -41.892115947798445  7.171333682085663  2.296637356191908  48.369763543791045  10.278173272419567  6.917331279520121  38.55482607298983  36.55155873305539  -29.221152800742654  24.52213466302743  120.000000
0.7129999999999995  0.000000  0.000000  0.000000  -42.20792437473452  7.590289746015763  3.3073400402245428  48.430538305855066  10.497105335673785  6.918228245910578  38.14831913528654  38.05444422649182  -29.617233212892675  24.42348371721359  120.000000
0.7439999999999996  0.000000  0.000000  0.000000  -42.622503084985865  8.002814990698175  4.415641379297701  48.48922137817839  10.714211986056709  6.886531795906157  37.87411186150667  39.48552060314347  -30.106975937486908  24.28909769070645  120.000000
0.7749999999999995  0.000000  0.000000  0.000000  -43.149883017818894  8.405612672265145  5.618306488633886  48.55283295162508  10.928114672231153  6.831283012708355  37.73789316001177  40.847983123466335  -30.718832302950236  24.108633715128953  120.000000
0.8059999999999995  0.000000  0.000000  0.000000  -43.791709637903324  8.796069400374682  6.909447080379796  48.62841752826765  11.135938630604649  6.764976312218015  37.728959952576666  42.14478242299787  -31.460848468243565  23.873528222516107  120.000000
0.8369999999999994  0.000000  0.000000  0.000000  -44.540100138472255  9.17335348410892  8.279843575034615  48.72305119278571  11.334280742251408  6.702668768598162  37.818416578707385  43.377742841189225  -32.315605578506634  23.580622421682783  120.000000
0.8679999999999994  0.000000  0.000000  0.000000  -45.37601520780882  9.537181534363084  9.717555319208532  48.843435840436605  11.519835078113575  6.661500509490864  37.96180950492065  44.54514313549098  -33.24058223139673  23.234205013709833  120.000000
0.8989999999999994  0.000000  0.000000  0.000000  -46.2764148271615  9.88873859862164  11.207288380224629  48.995270565494614  11.688832525424468  6.65888637022507  38.10542496735871  45.64384825585343  -34.17751435041019  22.846520843789712  120.000000
0.9299999999999994  0.000000  0.000000  0.000000  -47.21645353592026  10.228803795848462  12.731520537071367  49.18347021476527  11.838309423547432  6.71108947898836  38.19683748094334  46.668335226328026  -35.06638723380764  22.43515749923863  120.000000
